<svg xmlns="http://www.w3.org/2000/svg" width="500" height="500" viewBox="0 0 501 501" stroke="#000" stroke-linecap="round" stroke-linejoin="miter" fill="#000" fill-rule="nonzero" stroke-width=".0275">
    <path d="M243.67 88.7622c30.492-1.3004 61.3393 6.2423 87.7044 21.64 27.596 16.1086 50.4326 40.4276 64.3304 69.23 1.9334 4.0575 4.31 8.167 4.3522 12.7967.2342 7.6122-5.4273 14.8862-12.892 16.5-7.8203 2.0547-16.412-2.705-19.2905-10.1697-12.7447-29.148-36.7342-53.18-65.865-65.9517-30.492-13.525-66.2985-14.4787-97.458-2.5663-32.1044 11.947-58.6863 37.5318-72.3673 68.8734-3.6674 9.1207-16.048 12.5973-24.1022 7.1527-6.884-4.1963-9.5196-13.577-6.1556-20.8424 12.6406-29.2348 34.454-54.2994 61.2265-71.483 23.9202-15.4324 52.0887-24.085 80.517-25.1687zm-5.2278 75.3932c36.3875-5.835 75.237 16.2213 87.7304 51.0655 1.994 7.2133-1.6472 15.4-8.27 18.83-7.534 4.387-18.1893 1.3005-22.2642-6.38-6.858-17.7386-24.5444-30.5353-43.6268-30.9948-19.2904-.97-38.5548 10.7-46.1237 28.55-3.1558 8.5572-13.785 13.343-22.1774 9.4675-7.9676-3.182-12.1812-12.9268-9.1467-20.9377 10.5685-26.26 35.7978-45.8983 63.8795-49.6003z"/>
    <path d="M225.315 260.8504c.4422-14.5133 15.5103-26.0356 29.651-22.871 10.898 1.9594 19.62 11.895 20.1054 22.9578l.156 51.3083 127.6292.1474c22.0907 1.1618 42.118 18.38 46.1496 40.2022 3.3986 16.0132-1.9854 33.4136-13.577 44.9185-9.8057 9.9-23.8594 15.467-37.8006 14.8168-96.227-.0346-192.4624 0-288.6892-.0173-6.6758-.0607-13.4816.529-19.9753-1.3958-14.7736-3.3553-27.605-13.976-33.882-27.735-6.693-14.184-6.017-31.5583 1.786-45.17 8.2104-14.9988 24.605-24.9432 41.65-25.628l126.6667-.13.13-51.4037M97.13 337.6134c-9.242 1.127-17.5044 7.8983-20.383 16.7676-2.9996 8.5398-.737 18.5534 5.4794 25.108 8.1844 9.06 23.2873 10.4645 32.9802 3.0084 8.375-5.8782 12.051-17.2 9.242-26.9546-3.0778-11.635-15.3977-19.776-27.3188-17.9293z" fill="#000" stroke-linecap="butt"/>
</svg>