<svg xmlns="http://www.w3.org/2000/svg" width="500" height="500" viewBox="0 0 501 501" stroke="#000" stroke-linecap="round" stroke-width=".028">
  <path d="M243.67 88.762c30.492-1.3 61.34 6.243 87.704 21.64 27.596 16.109 50.433 40.428 64.33 69.23 1.934 4.058 4.31 8.167 4.353 12.797.234 7.612-5.427 14.886-12.892 16.5-7.82 2.055-16.412-2.705-19.29-10.17-12.745-29.148-36.735-53.18-65.866-65.951-30.492-13.525-66.298-14.48-97.458-2.567-32.104 11.947-58.686 37.532-72.367 68.874-3.667 9.12-16.048 12.597-24.102 7.152-6.884-4.196-9.52-13.577-6.156-20.842 12.641-29.235 34.454-54.3 61.227-71.483 23.92-15.432 52.089-24.085 80.517-25.169zm-5.228 75.393c36.388-5.835 75.237 16.222 87.73 51.066 1.995 7.213-1.647 15.4-8.27 18.83-7.533 4.387-18.189 1.3-22.264-6.38-6.858-17.739-24.544-30.535-43.626-30.995-19.29-.97-38.555 10.7-46.124 28.55-3.156 8.557-13.785 13.343-22.178 9.468-7.967-3.182-12.18-12.927-9.146-20.938 10.568-26.26 35.798-45.898 63.88-49.6z"/>
  <path d="M225.315 260.85c.442-14.513 15.51-26.035 29.651-22.87 10.898 1.959 19.62 11.894 20.105 22.957l.156 51.308 127.63.148c22.09 1.162 42.118 18.38 46.15 40.202 3.398 16.013-1.986 33.414-13.578 44.919-9.805 9.9-23.86 15.467-37.8 14.816-96.227-.034-192.463 0-288.69-.017-6.675-.06-13.481.53-19.975-1.396-14.774-3.355-27.605-13.976-33.882-27.735-6.693-14.184-6.017-31.558 1.786-45.17 8.21-14.999 24.605-24.943 41.65-25.628l126.667-.13.13-51.403M97.13 337.613c-9.242 1.127-17.504 7.899-20.383 16.768-3 8.54-.737 18.553 5.48 25.108 8.184 9.06 23.287 10.465 32.98 3.008 8.375-5.878 12.05-17.2 9.242-26.954-3.078-11.635-15.398-19.776-27.32-17.93z" stroke-linecap="butt"/>
</svg>
