<svg xmlns="http://www.w3.org/2000/svg" width="500" height="500" viewBox="0 0 501 501" stroke="#000" stroke-linecap="round" stroke-linejoin="round" fill="#fff" fill-rule="evenodd">
    <path d="M213.8702 165.9995c32.8915-15.5303 74.5745-7.9 100.1422 18.1364 11.2355 10.7185 19.3494 24.5577 24.0032 39.4263 7.259-14.1578 19.8657-25.5952 34.9805-30.3662 15.9215-5.351 34.0286-3.2352 48.3693 5.5634 20.6478 12.1564 32.593 37.7353 28.2457 61.6067-3.783 24.9417-24.697 46.0028-49.3775 49.5647-24.9146 4.379-51.0068-9.6973-62.1857-32.4985-9.5335 31.5018-36.4403 56.9745-68.4526 63.4938-29.504 6.7236-62.0485-3.2188-83.0754-25.2112-10.8966-10.7594-18.704-24.5006-23.1564-39.1976-5.9362 11.9194-15.4374 22.1558-27.4148 27.9236-19.414 10.0322-44.3285 7.6875-61.5727-5.833-19.7203-14.6072-28.8102-42.1876-21.1963-65.773 6.662-22.9238 27.9875-40.513 51.539-42.302 24.108-2.5734 48.321 11.944 58.693 33.969 7.4042-25.677 26.2374-47.7348 50.4583-58.5023m31.496 27.8745c-26.826 2.075-49.8292 26.2407-50.426 53.568-1.234 18.4468 7.2108 37.2123 21.866 48.2494 14.3728 11.2576 34.2868 14.7052 51.515 8.815 20.3252-6.5193 35.8837-25.7668 38.118-47.261 1.6777-14.305-2.1132-29.2143-10.6788-40.7498-11.2837-15.857-31.246-24.6067-50.3938-22.6215m-136.2196 31.9675c-11.332.2288-21.7045 9.3215-23.2046 20.767-2.702 14.0924 9.3077 28.8875 23.5917 28.3402 13.026.776 24.9066-11.078 24.5597-24.239.6453-13.5452-11.6547-25.5626-24.9468-24.8682m280.7226.0163c-13.4775.3922-24.73 13.6514-22.858 27.22.9034 11.805 11.4532 21.9108 23.1966 21.8536 11.1225.8496 21.9303-7.4997 24.3904-18.4387 4.5168-15.318-9.0577-31.9675-24.729-30.636z" fill-rule="nonzero" stroke-linejoin="miter" stroke-linecap="butt" fill="#000" stroke-width=".0169"/>
</svg>