<svg xmlns="http://www.w3.org/2000/svg" width="500" height="500" viewBox="0 0 501 501" stroke="#000" stroke-linecap="round" stroke-linejoin="miter" fill="#000" fill-rule="nonzero" stroke-width=".0176">
    <path d="M117.3445 62.893c2.3492-6.0716 7.975-10.8542 14.384-12.0348 4.4332-.5903 8.9145-.253 13.3598-.3132H357.076c4.9754.0964 10.1074-.506 14.9622.9396 4.144 1.265 7.216 4.4815 10.336 7.3125 1.3372 3.843 2.4215 7.8304 2.614 11.9142.4338 10.023 1.1686 20.046 1.217 30.093.2047 9.4085-9.1074 17.2028-18.2268 16.974-31.0327.253-62.0774-.0964-93.1218.1686.1686 9.9868 1.1203 19.9495.9274 29.9363 1.3372 21.2506.807 42.5734 1.9034 63.848-.265 10.1314.9277 20.1905.976 30.3097.6505 12.3842-.0482 24.8044.8794 37.1765 0 4.9.9155 10.1675-1.4818 14.685-3.3732 7.3366-11.2517 11.1915-18.6727 13.143-8.312 1.7588-17.335 1.3734-25.0693-2.36-6.2523-2.6865-11.5046-8.0473-13.384-14.65-.7468-12.4443 1.217-24.8525.8313-37.3.8794-12.866.6865-25.768.9878-38.6582 1.3132-18.4316-.5902-37.0198 1.7587-55.367-.24-13.1672.9397-26.3222.8314-39.4653l-1.0723-1.2167c-30.394-.458-60.8362.0964-91.2545-.253-8.216.253-15.7452-6.0234-17.9376-13.7454-.8674-8.5894.06-17.24.9757-25.7923.5662-5.0957-.3372-10.3843 1.3-15.3355zm-24.178 97.037c1.24-8.6255 9.0713-16.9017 18.1787-16.2632l102.6266.0482c-.1204 6.2403.0483 12.5166-.867 18.7087-.8674 9.5652-.2772 19.1785-.8917 28.7678-8.6496 6.2523-16.275 13.7695-24.4912 20.5518-4.7945 4.072-9.7458 7.963-14.2754 12.348 12.7336.3735 25.467-.1927 38.2004.3132-1.554 11.2397-.4458 22.648-1.5298 33.948-.0363 18.4556-1.2892 36.8993-.9397 55.367-12.5407.53-25.0936.2047-37.6223.2168l.3856 3.0358 52.4518 55.32c6.963 8.2642 15.2874 15.2633 22.2022 23.5756 1.036.8795 1.7348 2.6865 3.35 2.53 3.3852.53 4.7104-3.2768 6.7824-5.168l44.6817-46.55c8.3244-9.77 17.9617-18.3232 26.2257-28.1534 1.1806-1.277 1.6625-2.9755 2.29-4.5416-12.5407.012-25.0813-.0482-37.622.024l-2.602-89.82 37.827-.1205c-9.035-8.1798-18.3352-16.0824-27.6475-23.95-3.4213-3.1924-6.9628-6.2764-10.8662-8.8905-1.313-6.734-.5662-13.625-1.048-20.4314-.5782-9.023-.3253-18.0702-.5662-27.0932l103.4942.012c7.0714-.1204 12.625 5.3247 15.9136 11.083 2.542 11.36 2.542 23.0576 4.1683 34.5502l19.022 189.8216c.8674 7.6256 1.7348 15.2632 2.084 22.937.3735 6.0113-1.9998 12.5407-7.1918 15.938-3.6864 2.325-8 3.7947-12.3963 3.7105l-323.975-.012c-7.228.0482-15.0462-3.6502-17.8773-10.6253-3.2046-6.6016-1.1686-14.13-.53-21.07l8.9507-90.098c1.9154-10.83 1.24-21.9373 3.35-32.7433L93.1666 159.93zM73.4702 422.454c4.4933 3.0117 9.2157 6.41 14.938 6.0596l325.3724-.012c5.7823.494 10.5047-2.9756 14.9982-6.0596-1.2892 7.8425-3.88 16.0584-10.1556 21.36-5.1558 4.8427-12.5527 5.9872-19.3472 6.18l-296.3394-.012c-7.288 0-14.9982-1.9155-20.335-7.168-5.5055-5.3367-7.7944-13.0105-9.1314-20.347z"/>
</svg>