<svg xmlns="http://www.w3.org/2000/svg" xmlns:xlink="http://www.w3.org/1999/xlink" xmlns:v="http://vecta.io" width="500" height="500" viewBox="0 0 501 501">
    <g class="kcg19sbf1to.lay" transform="translate(50.5 50.049466850824)" v:layer_name="TVheadend">
        <g >
            <g transform="translate(80.0905 0)">
                <path d="M 116.787013998518 0.47170391092 C 120.816813998518 -0.79619608908 125.452313998518 0.56860391092 128.311013998518 3.64550391092 C 138.591513998518 13.82900391092 148.799113998518 24.08510391092 158.990713998518 34.36550391092 C 161.042013998518 36.39260391092 161.954613998518 39.29980391092 161.994913998518 42.13440391092 C 161.930313998518 65.54600391092 162.019213998518 88.96560391092 161.946613998518 112.36900391092 C 162.099913998518 114.31530391092 159.087713998518 116.98030391092 157.593713998518 114.86440391092 C 147.878713998518 105.48850391092 138.478413998518 95.78150391092 128.900613998518 86.25210391092 C 124.830513998518 81.49550391092 117.126213998518 80.33260391092 112.458313998518 84.89540391092 C 101.774213998518 95.19200391092 91.461513998518 105.89230391092 80.874313998518 116.29380391092 C 78.774513998518 118.35320391092 75.859213998518 119.48370391092 72.919713998518 119.34650391092 C 49.483913998518 119.34650391092 26.048113998518 119.33840391092 2.612413998518 119.35460391092 C -0.109186001482 119.79060391092 -0.868286001482 115.42970391092 1.118313998518 114.04880391092 C 36.635413998518 78.51560391092 72.120113998518 42.93390391092 107.669613998518 7.42490391092 C 110.415313998518 4.78410391092 112.854213998518 1.36810391092 116.787013998518 0.47170391092 Z" fill-rule="nonzero" fill="#000000" stroke-linecap="butt" stroke-linejoin="miter" stroke-width="0.01686161074386983"/>
            </g>
            <g transform="translate(280.8553 79.4766)">
                <path d="M 0.033976204982 3.7714 C -0.232523795018 1.914 1.657276204982 1.0256 2.828176204982 0 C 6.575376204982 2.9234 9.740976204982 6.4767 13.132776204982 9.7878 C 47.357776204982 43.9401 81.437276204982 78.2377 115.678476204982 112.3819 C 120.168476204982 116.6055 120.354376204982 124.552 115.896476204982 128.8645 C 106.027976204982 138.9187 95.989876204982 148.7954 86.072876204982 158.7931 C 83.787476204982 161.1916 80.694376204982 163.0894 77.270276204982 162.8552 C 53.834476204982 162.8229 30.398776204982 162.8713 6.962976204982 162.8229 C 4.960176204982 163.1863 4.209076204982 161.0543 3.344976204982 159.7218 C 13.383076204982 148.8923 24.236976204982 138.8541 34.412476204982 128.1619 C 38.450276204982 123.9302 38.014176204982 116.6216 33.846976204982 112.6403 C 23.558476204982 102.1903 13.060176204982 91.9422 2.803876204982 81.4599 C 0.647776204982 79.336 -0.038823795018 76.2107 0.001676204982 73.2792 C 0.050076204982 50.1099 -0.014423795018 26.9406 0.033976204982 3.7714 Z" fill-rule="nonzero" fill="#000000" stroke-linecap="butt" stroke-linejoin="miter" stroke-width="0.01686161074386983"/>
            </g>
            <g transform="translate(136.494 136.5893)">
                <path d="M 60.399709500647 0.410781084637 C 64.437509500647 -0.760218915363 68.911409500647 0.652981084637 71.826909500647 3.624881084637 C 89.141309500647 20.761581084637 106.221409500647 38.124381084637 123.503409500647 55.301481084637 C 128.033909500647 59.605881084637 128.251909500647 67.301981084637 123.729509500647 71.695281084637 C 106.617009500647 89.033881084637 89.278509500647 106.162481084637 72.093409500647 123.436481084637 C 67.821209500647 128.217281084637 59.543609500647 128.362681084637 55.150509500647 123.670681084637 C 37.941109500647 106.404781084637 20.642909500647 89.235681084637 3.473909500647 71.929381084637 C -1.121290499353 67.625081084637 -1.145390499353 59.872381084637 3.328509500647 55.471081084637 C 19.665809500647 38.980381084637 36.172609500647 22.635181084637 52.542009500647 6.176781084637 C 54.819409500647 3.859081084637 57.209809500647 1.412181084637 60.399709500647 0.410781084637 Z" fill-rule="nonzero" fill="#000000" stroke-linecap="butt" stroke-linejoin="miter" stroke-width="0.01686161074386983"/>
            </g>
            <g transform="translate(0 157.9479)">
                <path d="M 38.496191553157 0.646574671242 C 62.577991553157 -0.669725328758 86.837491553157 0.501274671242 110.984091553157 0.089374671242 C 113.544091553157 -0.556725328758 117.008491553157 2.471674671242 114.472791553157 4.740974671242 C 104.797991553157 14.972974671242 94.485291553157 24.607274671242 84.753991553157 34.782674671242 C 80.821091553157 38.949774671242 80.909991553157 45.854574671242 84.923591553157 49.940874671242 C 95.252491553157 60.600774671242 105.944691553157 70.929674671242 116.346291553157 81.533074671242 C 118.704391553157 84.020374671242 119.253491553157 87.589874671242 119.196991553157 90.892874671242 C 119.124291553157 113.779474671242 119.245391553157 136.674174671242 119.140391553157 159.560874671242 C 119.358491553157 162.177374671242 115.562991553157 163.275674671242 114.052791553157 161.313274671242 C 77.235491553157 124.641374671242 40.579791553157 87.799874671242 3.819091553157 51.079574671242 C -1.010308446843 46.831674671242 -1.341408446843 38.570174671242 3.294091553157 34.063974671242 C 12.847791553157 24.510374671242 22.433691553157 14.989074671242 31.914591553157 5.354774671242 C 33.812191553157 3.432674671242 35.839391553157 1.446074671242 38.496191553157 0.646574671242 Z" fill-rule="nonzero" fill="#000000" stroke-linecap="butt" stroke-linejoin="miter" stroke-width="0.01686161074386983"/>
            </g>
            <g transform="translate(157.8699 280.9362)">
                <path d="M 85.84690886034 0.595188983348 C 109.92050886034 -0.567711016652 134.14780886034 0.377088983348 158.27810886034 0.126788983348 C 161.33880886034 -0.729211016652 163.55970886034 3.453988983348 161.01580886034 5.384088983348 C 124.15800886034 42.290188983348 87.27630886034 79.163988983348 50.42660886034 116.069988983348 C 46.18700886034 120.519688983348 38.41800886034 120.721688983348 34.08150886034 116.304188983348 C 23.94640886034 106.249988983348 13.89210886034 96.114888983348 3.78130886034 86.036388983348 C 1.55240886034 83.880188983348 -0.03859113966 80.940588983348 0.05830886034 77.774888983348 C 0.00980886034 54.072688983348 -0.05469113966 30.362288983348 0.08260886034 6.651988983348 C 0.04220886034 4.358488983348 3.42590886034 3.316688983348 4.86330886034 5.028688983348 C 14.71580886034 14.533888983348 24.18060886034 24.450888983348 33.96830886034 34.020588983348 C 38.15150886034 38.454188983348 45.79110886034 38.486488983348 50.09550886034 34.206288983348 C 60.21440886034 24.135988983348 70.31710886034 14.041288983348 80.36340886034 3.898088983348 C 81.91390886034 2.404088983348 83.70670886034 1.063588983348 85.84690886034 0.595188983348 Z" fill-rule="nonzero" fill="#000000" stroke-linecap="butt" stroke-linejoin="miter" stroke-width="0.01686161074386983"/>
            </g>
        </g>
    </g>
</svg>