<?xml version="1.0" standalone="no"?>
<!DOCTYPE svg PUBLIC "-//W3C//DTD SVG 20010904//EN" "http://www.w3.org/TR/2001/REC-SVG-20010904/DTD/svg10.dtd">
<svg version="1.0" xmlns="http://www.w3.org/2000/svg" width="700.000000pt" height="700.000000pt" viewBox="0 0 700.000000 700.000000" preserveAspectRatio="xMidYMid meet">
    <metadata>
Created by potrace 1.14, written by Peter Selinger 2001-2017
</metadata>
    <g transform="translate(0.000000,700.000000) scale(0.100000,-0.100000)" fill="#000000" stroke="none">
        <path d="M1892 6933 c-41 -71 -285 -493 -417 -723 -43 -74 -240 -416 -438
-760 -198 -344 -369 -641 -380 -660 -29 -53 -312 -540 -336 -580 -11 -19 -24
-41 -28 -49 -3 -8 -34 -62 -68 -120 -33 -58 -76 -132 -94 -163 l-32 -58 733 0
733 0 95 167 c52 92 108 189 123 217 16 28 32 56 37 61 4 6 19 30 32 55 31 55
134 234 159 275 11 17 22 37 26 45 4 8 54 95 111 194 57 99 114 198 127 221
12 22 72 126 133 230 152 263 205 356 221 388 8 14 22 35 31 44 15 17 77 18
1113 18 l1096 -1 103 179 c57 99 114 198 127 221 13 22 45 79 72 124 27 46 49
86 49 88 0 2 12 23 27 47 15 23 32 51 38 62 9 18 126 221 150 263 77 131 155
271 155 276 0 3 -823 6 -1830 6 l-1829 0 -39 -67z" />
        <path d="M5975 6368 c-99 -172 -184 -320 -190 -330 -5 -9 -64 -111 -130 -224
-66 -114 -132 -228 -146 -253 -53 -92 -159 -276 -168 -291 -6 -8 -22 -37 -37
-65 -14 -27 -32 -57 -40 -66 -8 -8 -14 -18 -14 -21 0 -3 -46 -84 -101 -179
-56 -96 -115 -199 -132 -229 -16 -30 -35 -62 -42 -70 -7 -8 -14 -20 -16 -25
-2 -6 -33 -61 -69 -123 -36 -62 -69 -120 -75 -130 -5 -9 -31 -53 -56 -97 -26
-44 -56 -96 -66 -115 -11 -19 -52 -89 -90 -155 -39 -66 -81 -140 -95 -165 -14
-25 -62 -108 -106 -184 -92 -158 -92 -125 -2 -281 29 -49 61 -106 72 -125 11
-19 88 -152 170 -294 83 -143 162 -280 177 -306 34 -60 259 -450 272 -470 8
-14 247 -429 273 -475 12 -22 312 -540 326 -565 27 -44 156 -271 175 -305 12
-22 36 -63 52 -91 17 -27 41 -70 55 -95 14 -24 60 -104 103 -178 90 -154 72
-155 166 9 33 58 64 112 69 120 9 13 39 64 160 275 10 17 70 120 134 229 64
110 116 201 116 204 0 2 8 16 19 30 10 15 31 50 46 77 15 28 45 80 67 117 l40
68 -50 87 c-27 49 -92 160 -142 248 -51 88 -101 174 -110 191 -10 16 -94 163
-187 325 -94 161 -178 308 -187 324 -9 17 -26 46 -37 65 -49 81 -363 627 -376
651 -12 25 -10 33 38 115 28 49 59 100 68 114 8 14 16 27 16 30 0 3 8 16 17
30 12 20 429 740 520 900 11 19 87 150 168 290 81 140 157 271 168 290 10 19
36 63 56 97 20 34 36 64 36 66 0 3 -57 104 -126 224 -69 120 -136 236 -149
258 -12 22 -90 158 -173 301 -159 274 -185 320 -242 422 -19 34 -37 62 -40 62
-3 0 -86 -141 -185 -312z" />
        <path d="M106 3170 c4 -12 100 -182 134 -240 28 -47 117 -200 275 -475 210
-365 305 -528 312 -535 2 -2 498 -5 1101 -6 603 -1 1100 -2 1103 -3 3 0 48
-74 99 -163 52 -90 130 -226 175 -303 86 -148 449 -776 482 -835 11 -19 35
-60 53 -90 36 -60 62 -105 92 -160 11 -19 61 -107 112 -194 l93 -160 724 -1
c398 0 727 1 732 3 8 3 -22 60 -113 217 -29 50 -63 108 -75 130 -13 22 -71
123 -130 225 -59 102 -118 203 -130 225 -12 22 -62 108 -110 190 -48 83 -99
170 -113 195 -14 25 -80 140 -147 255 -67 116 -209 361 -315 545 -199 344
-377 653 -515 890 -43 74 -89 155 -103 180 -14 25 -37 63 -51 85 l-26 40
-1833 0 c-1624 0 -1832 -2 -1826 -15z" />
    </g>
</svg>